<?xml version="1.0" encoding="UTF-8" standalone="no"?>
<!-- Created with Inkscape (http://www.inkscape.org/) -->

<svg
   width="216mm"
   height="58mm"
   viewBox="0 0 216 58"
   preserveAspectRatio="none"
   version="1.1"
   id="svg5"
   xmlSpace="preserve"
   xmlnsSvg="http://www.w3.org/2000/svg"
   xmlns="http://www.w3.org/2000/svg"
   xmlnssvg="http://www.w3.org/2000/svg">
  <defs
     id="defs2" />
  <g
     id="layer1"
     style="display:none">
    <path
       style="fill:#fad4c2;fill-opacity:1;stroke:#313536;stroke-width:0;stroke-linecap:round;stroke-linejoin:round;stroke-dasharray:none"
       d="m -0.06442216,8.4949926 c 0,0 25.37186216,-5.742304 44.13467216,-1.367773 37.46645,8.7352654 45.54018,17.4183144 65.97618,16.7238304 43.47924,-1.477573 63.10131,-10.504516 92.4192,-13.768683 5.69941,-0.6345564 8.37028,-0.8783934 8.37028,-0.8783934 l -0.2092,41.6559674 c 0,0 -15.20204,4.02536 -29.58573,2.59797 -14.38369,-1.42739 -18.77961,-1.5249 -31.07316,-5.48995 -14.22144,-4.58687 -27.23024,-11.85831 -44.02951,-12.40731 -11.96374,-0.39097 -34.14754,1.42739 -44.57846,3.95277 -8.16222,1.97611 -53.6917902,10.10152 -58.6327572,9.99172 -4.940963,-0.1098 -2.96457696,-0.10979 -2.96457696,-0.10979 z"
       id="path1003-2" />
    <path
       style="fill:#bd6e6f;fill-opacity:1;stroke:#313536;stroke-width:0;stroke-linecap:round;stroke-linejoin:round;stroke-dasharray:none"
       d="m -0.06442178,13.364676 c 0,0 25.37186178,-5.7423043 44.13467378,-1.367773 37.46644,8.735265 45.54018,17.418314 65.976178,16.72383 43.47924,-1.477573 63.10131,-10.504516 92.4192,-13.768683 5.69941,-0.634556 8.37028,-0.878393 8.37028,-0.878393 l -0.2092,41.65597 c 0,0 -15.20204,4.02536 -29.58573,2.59797 -14.38369,-1.42739 -18.77961,-1.5249 -31.07316,-5.48995 -14.22144,-4.58687 -27.23024,-11.858314 -44.02951,-12.407314 -11.963738,-0.39097 -34.147538,1.42739 -44.578468,3.95277 -8.16221,1.976114 -53.6917868,10.101524 -58.6327488,9.991724 -4.940963,-0.1098 -2.96457698,-0.10979 -2.96457698,-0.10979 z"
       id="path1003-3" />
    <path
       style="fill:#a55455;fill-opacity:1;stroke:#313536;stroke-width:0;stroke-linecap:round;stroke-linejoin:round;stroke-dasharray:none"
       d="m -0.43564767,17.76579 c 0,0 25.37186167,-5.742304 44.13467067,-1.367773 37.466446,8.735265 45.540178,17.418314 65.976177,16.72383 43.47924,-1.477573 63.10131,-10.504516 92.4192,-13.768683 5.69941,-0.634556 8.37028,-0.878393 8.37028,-0.878393 l -0.2092,41.655967 c 0,0 -10.12945,2.199228 -25.93347,3.206681 C 156.86853,64.033489 127.68438,44.570954 103.33514,43.411123 68.195819,40.799854 37.030178,57.765597 2.3558668,58.775938 c -4.9409624,-0.1098 -2.96457727,-0.10979 -2.96457727,-0.10979 z"
       id="path1003" />
  </g>
  <g
     id="layer2"
     style="display:none"
     transform="translate(0.27131781,-10.581395)">
    <path
       style="fill:#f6f6f6;fill-opacity:1;stroke:#313536;stroke-width:0;stroke-linecap:round;stroke-linejoin:round;stroke-dasharray:none"
       d="m 193.47525,11.560786 c 0,0 -36.47301,22.488638 -64.72621,19.681641 C 91.764856,27.567993 68.730856,10.186512 41.703436,11.560786 17.760816,12.778207 -0.0946839,17.242085 -0.0946839,17.242085 V 52.953107 L 198.34494,50.924067 Z"
       id="path3853" />
  </g>
  <g
     id="layer3"
     transform="translate(1.4650653,-90.83405)"
     style="display:none">
    <path
       style="display:inline;fill:#bd6e6f;fill-opacity:1;stroke:#313536;stroke-width:0;stroke-linecap:round;stroke-linejoin:round;stroke-dasharray:none"
       d="m -25.312903,105.37633 c 0,0 22.4036062,7.53229 25.91480847,7.67275 C 14.698268,113.61299 58.45138,95.097107 79.043324,93.867197 116.16967,91.649717 148.26958,111.6861 170.05727,110.85159 199.26693,109.7328 220.17728,92.487007 220.17728,92.487007 l -0.51005,46.503293 c 0,0 -40.9869,-7.1772 -55.17077,-11.14376 -20.49432,-5.7313 -37.72484,-15.39041 -62.42123,-13.94845 -26.682439,1.55792 -67.682971,19.42371 -84.672644,19.60639 -16.98967343,0.18269 -30.298215,-0.98841 -30.298215,-0.98841 z"
       id="path7312" />
    <path
       style="display:inline;fill:#f6f6f6;fill-opacity:1;stroke:#313536;stroke-width:0;stroke-linecap:round;stroke-linejoin:round;stroke-dasharray:none"
       d="m -25.560004,105.00568 c 0,0 22.4036061,7.53229 25.91480825,7.67275 C 14.451167,113.24234 58.204279,94.72646 78.796223,93.49654 c 37.126337,-2.21747 69.226247,17.81891 91.013937,16.9844 29.20966,-1.11879 50.12001,-18.36458 50.12001,-18.36458 l -0.51005,46.50329 c 0,0 -40.9869,-7.1772 -55.17077,-11.14376 -20.49432,-5.7313 -37.72484,-15.39041 -62.42122,-13.94845 -26.68244,1.55792 -67.682972,19.42371 -84.672645,19.60639 -16.98967365,0.18269 -30.298215,-0.98841 -30.298215,-0.98841 z"
       id="path7310" />
    <path
       style="fill:#bd6e6f;fill-opacity:1;stroke:#313536;stroke-width:0;stroke-linecap:round;stroke-linejoin:round;stroke-dasharray:none"
       d="m -28.020885,103.15241 c 0,0 22.4036063,7.53229 25.9148085,7.67275 C 11.990286,111.38907 55.743398,92.873193 76.335342,91.643282 113.46169,89.425808 145.5616,109.46218 167.34929,108.62767 196.55895,107.50888 217.4693,90.263094 217.4693,90.263094 l -0.51005,46.503286 c 0,0 -40.9869,-7.1772 -55.17077,-11.14376 -20.49432,-5.7313 -37.72484,-15.39041 -62.421235,-13.94845 -26.682436,1.55792 -67.682968,19.42371 -84.672641,19.60639 -16.9896734,0.18269 -30.298215,-0.98841 -30.298215,-0.98841 z"
       id="path4875" />
  </g>
  <g
     id="layer5"
     style="display:inline"
     transform="translate(16.27907,-0.81395349)">
    <rect
       style="fill:#f6f6f6;fill-opacity:1;stroke:#a55455;stroke-width:0.3;stroke-linecap:round;stroke-linejoin:round"
       id="rect669"
       width="264.50418"
       height="44.981091"
       x="-19.607141"
       y="29.987392"
       transform="translate(-16.27907,0.81395349)" />
    <path
       style="display:inline;fill:#f6f6f6;fill-opacity:1;stroke:#313536;stroke-width:0;stroke-linecap:round;stroke-linejoin:round;stroke-dasharray:none"
       d="m -23.847775,9.1733568 c 0,0 64.115878,24.5980772 82.213452,24.3755662 35.193127,-0.432702 71.394163,-21.252188 96.348413,-21.202415 32.59717,0.06502 67.06886,15.288816 67.06886,15.288816 v 20.337013 c 0,0 -34.76288,-2.980788 -55.24167,-13.558009 C 146.6136,24.121753 92.768177,50.604342 51.595709,49.464227 19.283646,48.569467 25.912999,44.366483 3.7009439,39.174054 -18.511111,33.981626 -24.424709,34.12586 -24.424709,34.12586 Z"
       id="path17081-6" />
    <path
       style="display:inline;fill:#86966d;fill-opacity:1;stroke:#313536;stroke-width:0;stroke-linecap:round;stroke-linejoin:round;stroke-dasharray:none"
       d="m -27.260251,-1.2981072 c 0,0 64.115878,24.5980772 82.213452,24.3755662 C 90.146328,22.644757 126.34736,1.8252714 151.30161,1.8750436 183.89878,1.9400596 218.37047,17.16386 218.37047,17.16386 v 20.337013 c 0,0 -32.19285,-13.6591 -55.24167,-13.558009 C 130.24342,24.087098 102.84874,45.88991 69.232379,45.289516 36.913085,44.712287 22.500523,33.895019 0.28846804,28.70259 -21.923587,23.510162 -27.837185,23.654396 -27.837185,23.654396 Z"
       id="path17081" />
    <path
       style="display:inline;fill:#f6f6f6;fill-opacity:1;stroke:#c68485;stroke-width:0.3;stroke-linecap:round;stroke-linejoin:round;stroke-dasharray:none;stroke-opacity:1"
       d="m -21.513176,29.640376 c 0,0 12.3843358,-2.500314 33.584458,4.900223 20.989507,7.327015 41.164559,12.844002 59.041716,12.66887 26.66576,-0.261229 71.700512,-24.849276 97.645922,-21.632694 36.95392,4.581364 58.23558,17.32759 57.84653,18.883789 l -2.27084,13.505494 c 0,0 -33.82349,-6.095401 -43.14586,-9.919966 -9.32238,-3.824563 -32.54622,-14.23796 -62.26869,-9.202859 C 95.363255,42.833846 62.329952,61.236892 32.5088,58.205093 -1.6925695,54.727974 -20.676553,44.580082 -20.676553,44.580082 Z"
       id="path19023" />
  </g>
  <g
     id="layer6"
     style="display:none">
    <path
       style="display:inline;fill:#b26263;fill-opacity:1;stroke:#c68485;stroke-width:0;stroke-linecap:round;stroke-linejoin:round;stroke-dasharray:none;stroke-opacity:1"
       d="m -17.545652,4.835873 c 0,0 12.3843353,-2.5003125 33.584457,4.9002203 C 37.028312,17.063108 57.203364,22.580095 75.080521,22.404963 101.74629,22.143734 146.78104,-2.4443077 172.72645,0.77227413 209.68037,5.3536357 230.96203,18.099859 230.57298,19.656058 l -2.27084,13.505494 c 0,0 -33.82349,-6.095401 -43.14586,-9.919966 C 175.8339,19.417023 152.61006,9.0036266 122.88759,14.038727 99.330776,18.02934 66.297475,36.432386 36.476323,33.400587 2.274954,29.923468 -16.709029,19.775576 -16.709029,19.775576 Z"
       id="path22788" />
  </g>
  <g
     id="layer7"
     style="display:none">
    <path
       style="fill:#a55455;fill-opacity:1;stroke:#c68485;stroke-width:0;stroke-linecap:round;stroke-linejoin:round;stroke-dasharray:none;stroke-opacity:1"
       d="M -0.41935894,2.0967948 -0.13978632,25.44111 210.65798,25.301323 212.19152,3.7336003 c 0,0 -2.26645,-0.3089963 -13.85748,-0.4283066 C 178.6142,3.1023108 135.16541,23.564235 103.58166,23.763674 76.45829,23.934948 49.951194,7.0687602 8.9463239,2.7957264 -7.7457772,1.0562766 -0.41935894,2.0967948 -0.41935894,2.0967948 Z"
       id="path23497" />
    <path
       style="fill:none;fill-opacity:1;stroke:#c68485;stroke-width:0.3;stroke-linecap:round;stroke-linejoin:round;stroke-dasharray:none;stroke-opacity:1"
       d="M -0.41935894,0.50929473 -2.1243692,26.920692 212.10131,27.773196 211.01881,1.7852669 c 0,0 -9.03207,-0.1285797 -13.85748,-0.24789 C 177.44648,1.0499182 135.16541,21.976734 103.58166,22.176173 76.45829,22.347447 49.951194,5.4812601 8.9463239,1.2082263 -7.7457772,-0.53122341 -0.41935894,0.50929473 -0.41935894,0.50929473 Z"
       id="path24246" />
  </g>
</svg>
