<?xml version="1.0" encoding="UTF-8" standalone="no"?>
<!-- Created with Inkscape (http://www.inkscape.org/) -->

<svg
   width="210mm"
   height="47mm"
   viewBox="0 0 210 47"
   preserveAspectRatio="none"
   version="1.1"
   id="svg5"
   xmlSpace="preserve"
   xmlns="http://www.w3.org/2000/svg"
   xmlnsSvg="http://www.w3.org/2000/svg"><defs
     id="defs2" /><g
     id="layer1"
     style="display:none"><path
       style="fill:#fad4c2;fill-opacity:1;stroke:#313536;stroke-width:0;stroke-linecap:round;stroke-linejoin:round;stroke-dasharray:none"
       d="m -0.06442216,8.4949926 c 0,0 25.37186216,-5.742304 44.13467216,-1.367773 37.46645,8.7352654 45.54018,17.4183144 65.97618,16.7238304 43.47924,-1.477573 63.10131,-10.504516 92.4192,-13.768683 5.69941,-0.6345564 8.37028,-0.8783934 8.37028,-0.8783934 l -0.2092,41.6559674 c 0,0 -15.20204,4.02536 -29.58573,2.59797 -14.38369,-1.42739 -18.77961,-1.5249 -31.07316,-5.48995 -14.22144,-4.58687 -27.23024,-11.85831 -44.02951,-12.40731 -11.96374,-0.39097 -34.14754,1.42739 -44.57846,3.95277 -8.16222,1.97611 -53.6917902,10.10152 -58.6327572,9.99172 -4.940963,-0.1098 -2.96457696,-0.10979 -2.96457696,-0.10979 z"
       id="path1003-2" /><path
       style="fill:#bd6e6f;fill-opacity:1;stroke:#313536;stroke-width:0;stroke-linecap:round;stroke-linejoin:round;stroke-dasharray:none"
       d="m -0.06442178,13.364676 c 0,0 25.37186178,-5.7423043 44.13467378,-1.367773 37.46644,8.735265 45.54018,17.418314 65.976178,16.72383 43.47924,-1.477573 63.10131,-10.504516 92.4192,-13.768683 5.69941,-0.634556 8.37028,-0.878393 8.37028,-0.878393 l -0.2092,41.65597 c 0,0 -15.20204,4.02536 -29.58573,2.59797 -14.38369,-1.42739 -18.77961,-1.5249 -31.07316,-5.48995 -14.22144,-4.58687 -27.23024,-11.858314 -44.02951,-12.407314 -11.963738,-0.39097 -34.147538,1.42739 -44.578468,3.95277 -8.16221,1.976114 -53.6917868,10.101524 -58.6327488,9.991724 -4.940963,-0.1098 -2.96457698,-0.10979 -2.96457698,-0.10979 z"
       id="path1003-3" /><path
       style="fill:#a55455;fill-opacity:1;stroke:#313536;stroke-width:0;stroke-linecap:round;stroke-linejoin:round;stroke-dasharray:none"
       d="m -0.43564767,17.76579 c 0,0 25.37186167,-5.742304 44.13467067,-1.367773 37.466446,8.735265 45.540178,17.418314 65.976177,16.72383 43.47924,-1.477573 63.10131,-10.504516 92.4192,-13.768683 5.69941,-0.634556 8.37028,-0.878393 8.37028,-0.878393 l -0.2092,41.655967 c 0,0 -10.12945,2.199228 -25.93347,3.206681 C 156.86853,64.033489 127.68438,44.570954 103.33514,43.411123 68.195819,40.799854 37.030178,57.765597 2.3558668,58.775938 c -4.9409624,-0.1098 -2.96457727,-0.10979 -2.96457727,-0.10979 z"
       id="path1003" /></g><g
     id="layer2"
     style="display:none"><path
       style="fill:#f6f6f6;fill-opacity:1;stroke:#313536;stroke-width:0;stroke-linecap:round;stroke-linejoin:round;stroke-dasharray:none"
       d="m 3.8551667,0 c 0,0 22.4886373,36.473012 19.6816403,64.726217 C 19.862373,101.7104 2.4808918,124.7444 3.8551667,151.77182 c 1.2174208,23.94262 5.6812981,41.79812 5.6812981,41.79812 H 45.247483 L 43.218446,-4.8696842 Z"
       id="path3853" /></g><g
     id="layer3"
     transform="translate(1.4650653,-90.83405)"><path
       style="display:inline;fill:#bd6e6f;fill-opacity:1;stroke:#313536;stroke-width:0;stroke-linecap:round;stroke-linejoin:round;stroke-dasharray:none"
       d="m -25.312903,105.37633 c 0,0 22.4036062,7.53229 25.91480847,7.67275 C 14.698268,113.61299 58.45138,95.097107 79.043324,93.867197 116.16967,91.649717 148.26958,111.6861 170.05727,110.85159 199.26693,109.7328 220.17728,92.487007 220.17728,92.487007 l -0.51005,46.503293 c 0,0 -40.9869,-7.1772 -55.17077,-11.14376 -20.49432,-5.7313 -37.72484,-15.39041 -62.42123,-13.94845 -26.682439,1.55792 -67.682971,19.42371 -84.672644,19.60639 -16.98967343,0.18269 -30.298215,-0.98841 -30.298215,-0.98841 z"
       id="path7312" /><path
       style="display:inline;fill:#f6f6f6;fill-opacity:1;stroke:#313536;stroke-width:0;stroke-linecap:round;stroke-linejoin:round;stroke-dasharray:none"
       d="m -25.560004,105.00568 c 0,0 22.4036061,7.53229 25.91480825,7.67275 C 14.451167,113.24234 58.204279,94.72646 78.796223,93.49654 c 37.126337,-2.21747 69.226247,17.81891 91.013937,16.9844 29.20966,-1.11879 50.12001,-18.36458 50.12001,-18.36458 l -0.51005,46.50329 c 0,0 -40.9869,-7.1772 -55.17077,-11.14376 -20.49432,-5.7313 -37.72484,-15.39041 -62.42122,-13.94845 -26.68244,1.55792 -67.682972,19.42371 -84.672645,19.60639 -16.98967365,0.18269 -30.298215,-0.98841 -30.298215,-0.98841 z"
       id="path7310" /><path
       style="fill:#bd6e6f;fill-opacity:1;stroke:#313536;stroke-width:0;stroke-linecap:round;stroke-linejoin:round;stroke-dasharray:none"
       d="m -28.020885,103.15241 c 0,0 22.4036063,7.53229 25.9148085,7.67275 C 11.990286,111.38907 55.743398,92.873193 76.335342,91.643282 113.46169,89.425808 145.5616,109.46218 167.34929,108.62767 196.55895,107.50888 217.4693,90.263094 217.4693,90.263094 l -0.51005,46.503286 c 0,0 -40.9869,-7.1772 -55.17077,-11.14376 -20.49432,-5.7313 -37.72484,-15.39041 -62.421235,-13.94845 -26.682436,1.55792 -67.682968,19.42371 -84.672641,19.60639 -16.9896734,0.18269 -30.298215,-0.98841 -30.298215,-0.98841 z"
       id="path4875" /></g></svg>
