<?xml version="1.0" encoding="UTF-8" standalone="no"?>
<!-- Created with Inkscape (http://www.inkscape.org/) -->

<svg
   width="210mm"
   height="65mm"
   viewBox="0 0 210 65"
   preserveAspectRatio="none"
   version="1.1"
   id="svg5"
   xmlSpace="preserve"
   xmlns="http://www.w3.org/2000/svg"
   xmlnsSvg="http://www.w3.org/2000/svg"><defs
     id="defs2" /><g
     id="layer1"><path
       style="fill:#fad4c2;fill-opacity:1;stroke:#313536;stroke-width:0;stroke-linecap:round;stroke-linejoin:round;stroke-dasharray:none"
       d="m -0.06442216,8.4949926 c 0,0 25.37186216,-5.742304 44.13467216,-1.367773 37.46645,8.7352654 45.54018,17.4183144 65.97618,16.7238304 43.47924,-1.477573 63.10131,-10.504516 92.4192,-13.768683 5.69941,-0.6345564 8.37028,-0.8783934 8.37028,-0.8783934 l -0.2092,41.6559674 c 0,0 -15.20204,4.02536 -29.58573,2.59797 -14.38369,-1.42739 -18.77961,-1.5249 -31.07316,-5.48995 -14.22144,-4.58687 -27.23024,-11.85831 -44.02951,-12.40731 -11.96374,-0.39097 -34.14754,1.42739 -44.57846,3.95277 -8.16222,1.97611 -53.6917902,10.10152 -58.6327572,9.99172 -4.940963,-0.1098 -2.96457696,-0.10979 -2.96457696,-0.10979 z"
       id="path1003-2" /><path
       style="fill:#bd6e6f;fill-opacity:1;stroke:#313536;stroke-width:0;stroke-linecap:round;stroke-linejoin:round;stroke-dasharray:none"
       d="m -0.06442178,13.364676 c 0,0 25.37186178,-5.7423043 44.13467378,-1.367773 37.46644,8.735265 45.54018,17.418314 65.976178,16.72383 43.47924,-1.477573 63.10131,-10.504516 92.4192,-13.768683 5.69941,-0.634556 8.37028,-0.878393 8.37028,-0.878393 l -0.2092,41.65597 c 0,0 -15.20204,4.02536 -29.58573,2.59797 -14.38369,-1.42739 -18.77961,-1.5249 -31.07316,-5.48995 -14.22144,-4.58687 -27.23024,-11.858314 -44.02951,-12.407314 -11.963738,-0.39097 -34.147538,1.42739 -44.578468,3.95277 -8.16221,1.976114 -53.6917868,10.101524 -58.6327488,9.991724 -4.940963,-0.1098 -2.96457698,-0.10979 -2.96457698,-0.10979 z"
       id="path1003-3" /><path
       style="fill:#a55455;fill-opacity:1;stroke:#313536;stroke-width:0;stroke-linecap:round;stroke-linejoin:round;stroke-dasharray:none"
       d="m -0.43564767,17.76579 c 0,0 25.37186167,-5.742304 44.13467067,-1.367773 37.466446,8.735265 45.540178,17.418314 65.976177,16.72383 43.47924,-1.477573 63.10131,-10.504516 92.4192,-13.768683 5.69941,-0.634556 8.37028,-0.878393 8.37028,-0.878393 l -0.2092,41.655967 c 0,0 -10.12945,2.199228 -25.93347,3.206681 C 156.86853,64.033489 127.68438,44.570954 103.33514,43.411123 68.195819,40.799854 37.030178,57.765597 2.3558668,58.775938 c -4.9409624,-0.1098 -2.96457727,-0.10979 -2.96457727,-0.10979 z"
       id="path1003" /></g></svg>
